<svg width="38" height="42" viewBox="0 0 38 42" fill="none" xmlns="http://www.w3.org/2000/svg">
<path d="M2.90576 10.367H6.44378M6.44378 10.367H34.7479M6.44378 10.367V35.8408C6.44378 36.8059 6.81654 37.7315 7.48004 38.414C8.14355 39.0965 9.04346 39.4799 9.9818 39.4799H27.6719C28.6102 39.4799 29.5102 39.0965 30.1737 38.414C30.8372 37.7315 31.2099 36.8059 31.2099 35.8408V10.367H6.44378ZM11.7508 10.367V6.72793C11.7508 5.76278 12.1236 4.83716 12.7871 4.15469C13.4506 3.47223 14.3505 3.08882 15.2888 3.08882H22.3649C23.3032 3.08882 24.2031 3.47223 24.8666 4.15469C25.5301 4.83716 25.9029 5.76278 25.9029 6.72793V10.367M15.2888 19.4648V30.3821M22.3649 19.4648V30.3821" stroke="white" stroke-width="4.54888" stroke-linecap="round" stroke-linejoin="round"/>
</svg>
